<svg viewBox="126.91868531545741 145.371952 598.7659148264985 131.94588000000002" xmlns:xlink="http://www.w3.org/1999/xlink" xmlns="http://www.w3.org/2000/svg" style="max-height: 500px" width="598.7659148264985" height="131.94588000000002"><defs><style>.cls-1{fill:none;}.cls-2{clip-path:url(#clippath);}.cls-3{fill:#fff;}.cls-4{fill:#b8eefe;}.cls-5{fill:#8fb7e5;}.cls-6{mix-blend-mode:overlay;}.cls-7{fill:url(#radial-gradient-2);}.cls-8{mix-blend-mode:soft-light;}.cls-9{fill:url(#radial-gradient);}.cls-10{isolation:isolate;}</style><clipPath id="clippath"><path d="m524.48,180.32h-50.35l50.35,41.94v25.16h-96.5v-25.16h54.55l-54.55-37.74v-29.35h96.5v25.16Zm-264.34,67.1h-29.37v-92.26h29.37v33.55h29.37v-33.55h29.37v92.26h-29.37v-33.55h-29.37v33.55Zm113.29-62.9l-20.98,62.9h-29.37l33.57-92.26h33.57l33.57,92.26h-29.37l-20.98-62.9Zm-239.16-29.35v92.26h29.37v-62.9h37.76v4.19h-33.57l12.59,29.35h46.15v-62.9h-92.31Zm478.32,29.35v-29.35h-83.92v92.26h83.92v-25.16h-58.74v-4.19h58.74v-29.35h-58.74v-4.19h58.74Zm79.72,29.35h20.98v-58.71h-96.5v92.26h29.37v-62.9h37.76v4.19h-33.57l33.57,79.68h29.37l-20.98-54.52Z" class="cls-1"/></clipPath><radialGradient gradientUnits="userSpaceOnUse" r="289.43" fy="289.35" fx="427.97" cy="289.35" cx="427.97" id="radial-gradient"><stop stop-color="#bfebfd" offset="0"/><stop stop-opacity="0" stop-color="#bfebfd" offset="1"/></radialGradient><radialGradient xlink:href="#radial-gradient" r="134.23" fy="184.52" fx="427.97" cy="184.52" cx="427.97" id="radial-gradient-2"/></defs><g class="cls-10"><g id="Tweaked"><path d="m698.7,218.06h18.78v-67.1h-293.71c0,11.93.45,22.9.42,34.83,0,.79.28,1.22.9,1.67,25.34,18.15,44.63,30.59,44.63,30.59h-45.96s.49,9.35.49,15.36c-.06.01-.17,2.04-.17,2.04l-31.69-84.5h-37.96s-22.34,58.49-31.58,86.22c-.1,0-.19-4.02-.28-4.03v-71.31c0-7.11.49-10.88.49-10.88h-37.76v33.55h-20.98v-33.55h-134.27v100.64h37.76s.37-33.42.37-51.01c.09-.02.18-.03.26-.05,2.6,6.7,5.12,14.93,7.76,21.71h50.35v29.35h37.76v-33.55h20.98v33.55h70.33l18.09-55.39,17.47,55.39h259.14v-51.32l30.9,72.27,38.43.02-20.98-54.52Zm-174.22-33.55v32.35l-40.76-32.35h40.76Z"/><path d="m524.48,180.32h-50.35l50.35,41.94v25.16h-96.5v-25.16h54.55l-54.55-37.74v-29.35h96.5v25.16Zm-264.34,67.1h-29.37v-92.26h29.37v33.55h29.37v-33.55h29.37v92.26h-29.37v-33.55h-29.37v33.55Zm113.29-62.9l-20.98,62.9h-29.37l33.57-92.26h33.57l33.57,92.26h-29.37l-20.98-62.9Zm-239.16-29.35v92.26h29.37v-62.9h37.76v4.19h-33.57l12.59,29.35h46.15v-62.9h-92.31Zm478.32,29.35v-29.35h-83.92v92.26h83.92v-25.16h-58.74v-4.19h58.74v-29.35h-58.74v-4.19h58.74Zm79.72,29.35h20.98v-58.71h-96.5v92.26h29.37v-62.9h37.76v4.19h-33.57l33.57,79.68h29.37l-20.98-54.52Z" class="cls-5"/><g class="cls-2"><path d="m427.97,0c159.89,0,289.51,129.55,289.51,289.35s-129.62,289.35-289.51,289.35S138.46,449.16,138.46,289.35,268.08,0,427.97,0Z" class="cls-9"/><g class="cls-6"><path d="m427.97,50.32c74.15,0,134.27,60.08,134.27,134.19s-60.11,134.19-134.27,134.19-134.27-60.08-134.27-134.19,60.11-134.19,134.27-134.19Z" class="cls-7"/></g><g class="cls-8"><path d="m167.83,130h109.09l-167.83,146.77H0l167.83-146.77Zm180.42,0h29.37l-167.83,146.77h-29.37l167.83-146.77Zm75.52,0h71.33l-167.83,146.77h-71.33l167.83-146.77Zm100.7,0h54.55l-167.83,146.77h-54.55l167.83-146.77Zm79.72,0h29.37l-167.83,146.77h-29.37l167.83-146.77Zm100.7,0h29.37l-167.83,146.77h-29.37l167.83-146.77Z" class="cls-4"/></g><g class="cls-8"><path d="m167.83,130h109.09l-167.83,146.77H0l167.83-146.77Zm180.42,0h29.37l-167.83,146.77h-29.37l167.83-146.77Zm75.52,0h71.33l-167.83,146.77h-71.33l167.83-146.77Zm100.7,0h54.55l-167.83,146.77h-54.55l167.83-146.77Zm79.72,0h29.37l-167.83,146.77h-29.37l167.83-146.77Zm100.7,0h29.37l-167.83,146.77h-29.37l167.83-146.77Z" class="cls-4"/></g><path d="m415.38,159.36l-281.12-4.19h579.02l-297.9,4.19Z" class="cls-3"/></g></g></g></svg>