<?xml version="1.0" encoding="UTF-8"?>
<!DOCTYPE svg PUBLIC "-//W3C//DTD SVG 1.1//EN" "http://www.w3.org/Graphics/SVG/1.1/DTD/svg11.dtd">
<svg xmlns="http://www.w3.org/2000/svg" version="1.1" width="2491px" height="682px" style="shape-rendering:geometricPrecision; text-rendering:geometricPrecision; image-rendering:optimizeQuality; fill-rule:evenodd; clip-rule:evenodd" xmlns:xlink="http://www.w3.org/1999/xlink">
<g><path style="opacity:0.999" fill="#003399" d="M 1829.5,-0.5 C 1874.17,-0.5 1918.83,-0.5 1963.5,-0.5C 1989.33,0.497801 2015.33,0.831135 2041.5,0.5C 2041.28,73.5052 2041.78,146.505 2043,219.5C 2112.89,149.613 2182.72,79.7792 2252.5,10C 2260.28,4.02488 2268.94,0.52488 2278.5,-0.5C 2348.83,-0.5 2419.17,-0.5 2489.5,-0.5C 2489.17,60.0023 2489.5,120.336 2490.5,180.5C 2490.5,190.5 2490.5,200.5 2490.5,210.5C 2489.94,218.306 2487.11,225.306 2482,231.5C 2447.97,265.701 2413.8,299.701 2379.5,333.5C 2379.67,246.499 2379.5,159.499 2379,72.5C 2373.63,77.702 2368.46,83.0353 2363.5,88.5C 2223.83,224.832 2084.5,361.498 1945.5,498.5C 1929.9,512.6 1914.73,527.267 1900,542.5C 1899.5,437.167 1899.33,331.834 1899.5,226.5C 1916.25,226.815 1931.58,222.482 1945.5,213.5C 1971.06,198.098 1985.89,175.431 1990,145.5C 1992.2,98.0657 1971.36,65.5657 1927.5,48C 1881.34,36.0053 1845.17,49.8386 1819,89.5C 1806.77,112.721 1804.1,137.054 1811,162.5C 1816,176.018 1823.17,188.185 1832.5,199C 1752.57,281.598 1671.9,363.598 1590.5,445C 1589.83,445.667 1589.17,445.667 1588.5,445C 1560.78,421.265 1529.44,414.932 1494.5,426C 1451.94,444.935 1432.1,477.768 1435,524.5C 1441.04,558.204 1459.54,582.37 1490.5,597C 1534.76,611.897 1571.6,601.397 1601,565.5C 1617.9,539.775 1621.9,512.108 1613,482.5C 1607.97,469.604 1600.81,458.104 1591.5,448C 1672.14,365.695 1753.14,283.695 1834.5,202C 1835.17,201.333 1835.83,201.333 1836.5,202C 1843.56,208.892 1851.56,214.392 1860.5,218.5C 1872.15,224.161 1884.48,226.827 1897.5,226.5C 1897.5,248.833 1897.5,271.167 1897.5,293.5C 1896.17,378.334 1896.17,463.334 1897.5,548.5C 1898.11,548.376 1898.44,548.043 1898.5,547.5C 1915.14,531.527 1931.47,515.194 1947.5,498.5C 2086.83,362.502 2225.83,226.168 2364.5,89.5C 2368.17,86.1667 2371.83,82.8333 2375.5,79.5C 2376.5,164.665 2376.83,249.998 2376.5,335.5C 2376.5,336.167 2376.5,336.833 2376.5,337.5C 2267.34,445.826 2158.67,554.659 2050.5,664C 2044.81,669.12 2038.15,672.12 2030.5,673C 1958.83,672.953 1887.17,672.786 1815.5,672.5C 1815.87,599.673 1815.37,527.006 1814,454.5C 1743.17,524 1673,594.167 1603.5,665C 1595.85,670.83 1587.18,673.996 1577.5,674.5C 1507.85,672.937 1438.18,672.603 1368.5,673.5C 1368.39,601.497 1368.22,529.497 1368,457.5C 1368.53,452.444 1370.19,447.778 1373,443.5C 1519.19,297.639 1665.03,151.473 1810.5,5C 1816.64,2.05185 1822.98,0.218521 1829.5,-0.5 Z"/></g>
<g><path style="opacity:0.994" fill="#000000" d="M 360.5,681.5 C 348.833,681.5 337.167,681.5 325.5,681.5C 295.538,679.422 267.205,671.255 240.5,657C 221.513,645.68 207.013,630.18 197,610.5C 171.695,545.256 148.362,479.256 127,412.5C 84.5613,278.356 42.0613,144.356 -0.5,10.5C -0.5,9.16667 -0.5,7.83333 -0.5,6.5C 52.5042,6.16672 105.504,6.50005 158.5,7.5C 216.235,179.87 274.068,352.204 332,524.5C 333.874,529.606 337.541,532.273 343,532.5C 349.885,532.283 354.551,528.95 357,522.5C 413.658,350.195 470.158,177.862 526.5,5.5C 936.5,5.33333 1346.5,5.5 1756.5,6C 1707.2,52.3016 1658.2,98.9683 1609.5,146C 1514.83,146.5 1420.17,146.667 1325.5,146.5C 1325.5,322.167 1325.5,497.833 1325.5,673.5C 1276.83,673.5 1228.17,673.5 1179.5,673.5C 1179.5,497.833 1179.5,322.167 1179.5,146.5C 1037.17,146.333 894.833,146.5 752.5,147C 734.518,147.902 721.018,156.069 712,171.5C 698.668,196.814 699.668,221.481 715,245.5C 723.732,255.95 734.899,261.783 748.5,263C 829.186,263.029 909.853,263.695 990.5,265C 1040.3,271.97 1078.8,296.47 1106,338.5C 1134.56,385.119 1146.22,435.786 1141,490.5C 1137.46,546.399 1115.96,593.899 1076.5,633C 1047.28,658.082 1013.28,671.415 974.5,673C 843.834,673.5 713.167,673.667 582.5,673.5C 582.5,626.167 582.5,578.833 582.5,531.5C 703.5,531.667 824.5,531.5 945.5,531C 957.306,528.85 966.806,523.017 974,513.5C 989.199,488.689 991.532,462.689 981,435.5C 974.145,420.648 962.645,411.815 946.5,409C 869.833,408.667 793.167,408.333 716.5,408C 660.658,404.843 617.158,380.343 586,334.5C 561.879,406.53 537.545,478.53 513,550.5C 504.44,574.952 494.773,598.952 484,622.5C 470.36,641.131 452.86,654.965 431.5,664C 408.673,673.79 385.007,679.624 360.5,681.5 Z"/></g>
<g><path style="opacity:1" fill="#013399" d="M 1943.5,212.5 C 1932.53,218.379 1920.86,222.046 1908.5,223.5C 1905.83,223.5 1903.17,223.5 1900.5,223.5C 1900.83,193.159 1900.5,162.826 1899.5,132.5C 1898.89,132.624 1898.56,132.957 1898.5,133.5C 1891.5,140.833 1884.5,148.167 1877.5,155.5C 1863.2,169.298 1849.03,183.298 1835,197.5C 1809.88,169.331 1803.54,137.331 1816,101.5C 1834.75,61.5323 1866.25,43.3657 1910.5,47C 1946.68,52.8397 1971.18,73.0063 1984,107.5C 1993.18,142.262 1985.68,172.762 1961.5,199C 1955.61,203.764 1949.61,208.264 1943.5,212.5 Z"/></g>
<g><path style="opacity:0.894" fill="#fcfdfd" d="M 2379.5,333.5 C 2379.5,404.167 2379.5,474.833 2379.5,545.5C 2379.83,564.512 2379.5,583.512 2378.5,602.5C 2377.83,584.671 2377.17,567.005 2376.5,549.5C 2376.5,478.833 2376.5,408.167 2376.5,337.5C 2376.5,336.833 2376.5,336.167 2376.5,335.5C 2377.83,249.999 2377.83,164.332 2376.5,78.5C 2375.89,78.6236 2375.56,78.9569 2375.5,79.5C 2371.83,82.8333 2368.17,86.1667 2364.5,89.5C 2364.5,88.8333 2364.17,88.5 2363.5,88.5C 2368.46,83.0353 2373.63,77.702 2379,72.5C 2379.5,159.499 2379.67,246.499 2379.5,333.5 Z"/></g>
<g><path style="opacity:1" fill="#6180bf" d="M 2375.5,79.5 C 2375.56,78.9569 2375.89,78.6236 2376.5,78.5C 2377.83,164.332 2377.83,249.999 2376.5,335.5C 2376.83,249.998 2376.5,164.665 2375.5,79.5 Z"/></g>
<g><path style="opacity:1" fill="#f5f7fb" d="M 1898.5,133.5 C 1899.5,163.662 1899.83,193.995 1899.5,224.5C 1902.71,224.81 1905.71,224.477 1908.5,223.5C 1920.86,222.046 1932.53,218.379 1943.5,212.5C 1944.49,212.328 1945.16,212.662 1945.5,213.5C 1931.58,222.482 1916.25,226.815 1899.5,226.5C 1899.33,331.834 1899.5,437.167 1900,542.5C 1914.73,527.267 1929.9,512.6 1945.5,498.5C 1946.17,498.5 1946.83,498.5 1947.5,498.5C 1931.47,515.194 1915.14,531.527 1898.5,547.5C 1897.5,463.002 1897.17,378.335 1897.5,293.5C 1897.5,271.167 1897.5,248.833 1897.5,226.5C 1884.48,226.827 1872.15,224.161 1860.5,218.5C 1860.83,217.833 1861.17,217.167 1861.5,216.5C 1872.9,221.683 1884.9,224.35 1897.5,224.5C 1897.67,195.831 1897.5,167.165 1897,138.5C 1890.96,144.703 1884.8,150.703 1878.5,156.5C 1878.5,155.833 1878.17,155.5 1877.5,155.5C 1884.5,148.167 1891.5,140.833 1898.5,133.5 Z"/></g>
<g><path style="opacity:1" fill="#043499" d="M 1861.5,216.5 C 1852.48,212.318 1844.48,206.651 1837.5,199.5C 1851.55,185.449 1865.22,171.116 1878.5,156.5C 1884.8,150.703 1890.96,144.703 1897,138.5C 1897.5,167.165 1897.67,195.831 1897.5,224.5C 1884.9,224.35 1872.9,221.683 1861.5,216.5 Z"/></g>
<g><path style="opacity:1" fill="#dfe5f2" d="M 1945.5,213.5 C 1945.16,212.662 1944.49,212.328 1943.5,212.5C 1949.61,208.264 1955.61,203.764 1961.5,199C 1985.68,172.762 1993.18,142.262 1984,107.5C 1971.18,73.0063 1946.68,52.8397 1910.5,47C 1866.25,43.3657 1834.75,61.5323 1816,101.5C 1803.54,137.331 1809.88,169.331 1835,197.5C 1849.03,183.298 1863.2,169.298 1877.5,155.5C 1878.17,155.5 1878.5,155.833 1878.5,156.5C 1865.22,171.116 1851.55,185.449 1837.5,199.5C 1844.48,206.651 1852.48,212.318 1861.5,216.5C 1861.17,217.167 1860.83,217.833 1860.5,218.5C 1851.56,214.392 1843.56,208.892 1836.5,202C 1835.83,201.333 1835.17,201.333 1834.5,202C 1753.14,283.695 1672.14,365.695 1591.5,448C 1600.81,458.104 1607.97,469.604 1613,482.5C 1621.9,512.108 1617.9,539.775 1601,565.5C 1571.6,601.397 1534.76,611.897 1490.5,597C 1459.54,582.37 1441.04,558.204 1435,524.5C 1432.1,477.768 1451.94,444.935 1494.5,426C 1529.44,414.932 1560.78,421.265 1588.5,445C 1589.17,445.667 1589.83,445.667 1590.5,445C 1671.9,363.598 1752.57,281.598 1832.5,199C 1823.17,188.185 1816,176.018 1811,162.5C 1804.1,137.054 1806.77,112.721 1819,89.5C 1845.17,49.8386 1881.34,36.0053 1927.5,48C 1971.36,65.5657 1992.2,98.0657 1990,145.5C 1985.89,175.431 1971.06,198.098 1945.5,213.5 Z"/></g>
<g><path style="opacity:1" fill="#6080c0" d="M 1898.5,133.5 C 1898.56,132.957 1898.89,132.624 1899.5,132.5C 1900.5,162.826 1900.83,193.159 1900.5,223.5C 1903.17,223.5 1905.83,223.5 1908.5,223.5C 1905.71,224.477 1902.71,224.81 1899.5,224.5C 1899.83,193.995 1899.5,163.662 1898.5,133.5 Z"/></g>
<g><path style="opacity:1" fill="#e1e7f3" d="M 2363.5,88.5 C 2364.17,88.5 2364.5,88.8333 2364.5,89.5C 2225.83,226.168 2086.83,362.502 1947.5,498.5C 1946.83,498.5 1946.17,498.5 1945.5,498.5C 2084.5,361.498 2223.83,224.832 2363.5,88.5 Z"/></g>
<g><path style="opacity:1" fill="#013399" d="M 1511.5,423.5 C 1556.6,419.956 1589.1,438.29 1609,478.5C 1622.06,518.077 1613.56,552.244 1583.5,581C 1548.61,606.416 1512.61,608.082 1475.5,586C 1445.69,563.617 1433.19,533.784 1438,496.5C 1447.77,457.231 1472.27,432.897 1511.5,423.5 Z"/></g>
<g><path style="opacity:0.989" fill="#003398" d="M 2376.5,549.5 C 2377.17,567.005 2377.83,584.671 2378.5,602.5C 2379.5,583.512 2379.83,564.512 2379.5,545.5C 2416.13,508.7 2452.63,471.7 2489,434.5C 2489.67,508.833 2489.67,583.167 2489,657.5C 2486.83,665 2482,669.833 2474.5,672C 2401.83,672.833 2329.16,672.667 2256.5,671.5C 2296.19,630.481 2336.19,589.814 2376.5,549.5 Z"/></g>
<g><path style="opacity:1" fill="#4d6fb7" d="M 1897.5,293.5 C 1897.17,378.335 1897.5,463.002 1898.5,547.5C 1898.44,548.043 1898.11,548.376 1897.5,548.5C 1896.17,463.334 1896.17,378.334 1897.5,293.5 Z"/></g>
</svg>
